<?xml version="1.0" encoding="utf-8"?>
<!-- Generator: Adobe Illustrator 16.0.0, SVG Export Plug-In . SVG Version: 6.00 Build 0)  -->
<!DOCTYPE svg PUBLIC "-//W3C//DTD SVG 1.1//EN" "http://www.w3.org/Graphics/SVG/1.1/DTD/svg11.dtd">
<svg version="1.1" id="Layer_1" xmlns="http://www.w3.org/2000/svg" xmlns:xlink="http://www.w3.org/1999/xlink" x="0px" y="0px"
	 width="800px" height="346.483px" viewBox="0 0 800 346.483" enable-background="new 0 0 800 346.483" xml:space="preserve">
<g>
	<path id="path2248" fill="#231F20" d="M309.364,294.124c0.383,5.333-4.741,7.896-7.304,5.333
		c-7.688-7.688,2.563-15.375,7.687-15.375c7.687,0,12.813,10.249,10.25,17.937c-5.125,10.25-20.499,10.25-28.186,2.562
		c-5.125-7.687-2.563-15.374,0-23.061c7.687-10.25,23.062-10.25,33.312-2.562c7.688,7.687,7.688,17.936,5.125,28.187
		c-7.688,17.937-33.312,23.062-46.125,5.125c-10.25-17.938-5.125-43.561,15.495-48.216c5.413-1.902,5.675-2.417,5.656-2.483
		c-0.078-0.267-0.238-6.458-0.363-13.76c-0.122-7.302-0.274-13.836-0.339-14.521c-0.073-0.683-0.239-5.562-0.363-10.84
		c-0.132-5.277-0.38-9.689-0.545-9.802c-0.173-0.105-0.321,0.103-0.333,0.476c-0.125,3.317-0.729,4.924-1.575,4.174
		c-0.56-0.506-0.543-0.571-1.351,3.946c-0.703,3.868-1.059,4.792-1.744,4.507c-0.271-0.106-0.49-0.038-0.49,0.152
		c0,0.2-0.375,0.456-0.846,0.588c-0.646,0.172-1.259,1.086-2.578,3.844c-1.607,3.366-1.83,3.668-3.146,4.136
		c-1.531,0.541-3.876,3.318-5.07,6.019c-0.35,0.781-0.791,1.416-0.998,1.416c-0.393,0.01-2.948,4.928-4.247,8.198
		c-1.021,2.578-0.988,2.558-1.454,1.263c-0.486-1.377-0.454-10.279,0.063-12.847c0.34-1.719,0.313-2.004-0.201-2.415
		c-0.74-0.588-0.542-1.341,1.242-4.745c1.497-2.863,1.544-3.053,0.816-3.356c-0.286-0.125-0.511-0.448-0.511-0.713
		c0-0.581,2.96-5.022,3.921-5.878c0.583-0.523,0.587-0.618,0.085-1.063c-0.869-0.79-0.684-1.313,1.364-3.929
		c1.056-1.341,1.802-2.442,1.647-2.442c-0.159,0-0.497-0.153-0.747-0.326c-0.39-0.266-0.39-0.476-0.036-1.207
		c0.434-0.865,0.411-0.855-0.803,0.143c-0.683,0.562-1.606,1.026-2.043,1.026c-0.761,0.01-1.57,0.391-5.121,2.425
		c-0.855,0.486-1.946,0.904-2.422,0.914c-0.475,0.021-1.481,0.428-2.242,0.931c-0.761,0.516-1.927,1.181-2.598,1.494
		c-0.661,0.323-1.477,0.74-1.812,0.94c-0.414,0.258-0.811,0.228-1.249-0.065c-0.543-0.363-1.146-0.22-3.424,0.798
		c-2.94,1.302-4.564,1.341-4.574,0.095c-0.012-1.598-0.485-1.636-3.238-0.257c-1.729,0.856-3.06,1.294-3.781,1.219
		c-0.959-0.105-1.111-0.268-1.207-1.332c-0.12-1.361-0.065-1.331-1.247-0.848c-0.49,0.201-2.187,0.533-3.789,0.753
		c-3.352,0.445-4.701,0.113-4.701-1.15c0-0.751-0.115-0.781-1.907-0.544c-2.616,0.363-3.977,0-3.977-1.036
		c0-0.761-0.165-0.808-3.178-0.876c-2.465-0.055-3.283-0.198-3.591-0.665c-0.348-0.513-1.488-0.588-8.474-0.588
		c-4.447,0-8.277-0.125-8.525-0.305c-0.3-0.201,0.326-0.667,1.902-1.445c3.754-1.826,11.188-4.604,12.967-4.821
		c1.506-0.201,1.622-0.286,1.436-1.074c-0.25-1.076,0.661-1.388,4.129-1.426l2.36-0.03l-0.181-1.199
		c-0.162-1.122-0.105-1.216,1.032-1.444c1.204-0.237,3.415-0.047,4.867,0.428c0.706,0.218,0.759,0.143,0.622-0.989
		c-0.181-1.531,0.195-1.816,2.414-1.806c1.512,0,2.33,0.142,4.655,0.769c0.39,0.104,0.486-0.161,0.398-1.122
		c-0.065-0.751,0.082-1.379,0.358-1.569c0.733-0.503,3.786-0.353,5.303,0.258c2.051,0.808,2.061,0.808,1.947-0.496
		c-0.096-1.179-0.07-1.216,1.281-1.216c0.756,0,2.32,0.323,3.473,0.713l2.112,0.703v-1.131v-1.142l2.439,0.256
		c1.344,0.132,2.996,0.496,3.671,0.798c1.596,0.723,1.602,0.723,1.341-0.436l-0.23-0.971l2.868,0.257
		c1.579,0.15,3.318,0.513,3.874,0.799c1.282,0.675,1.327,0.675,1.081-0.18c-0.205-0.686-0.062-0.713,2.479-0.534
		c1.48,0.105,3.147,0.343,3.693,0.534c0.556,0.18,1.237,0.333,1.512,0.333c0.433,0,0.443-0.087,0.034-0.601
		c-0.435-0.581-0.214-0.598,2.808-0.351c1.812,0.143,3.671,0.333,4.147,0.408c2.249,0.418-2.69-1.066-6.086-1.797
		c-2.282-0.505-4.073-1.103-4.431-1.484c-0.323-0.353-0.979-0.638-1.449-0.638c-0.47,0-2.504-0.276-4.512-0.618
		c-2.933-0.483-3.688-0.742-3.813-1.275c-0.215-0.873-1.832-1.454-4.037-1.464c-3.485-0.027-6.678-1.454-6.208-2.785
		c0.128-0.343-0.443-0.475-2.165-0.523c-2.325-0.058-4.284-0.468-5.838-1.236c-0.645-0.315-0.781-0.6-0.628-1.409l0.18-1.008
		l-2.737-0.055c-2.64-0.048-6.011-0.563-6.679-1.009c-0.196-0.125-0.183-0.485,0.022-0.913c0.193-0.37,0.348-0.761,0.348-0.856
		c0-0.085-1.292-0.238-2.873-0.353c-2.633-0.17-5.093-0.989-5.065-1.682c0.005-0.153,0.24-0.601,0.521-0.999
		c0.28-0.4,0.507-0.828,0.507-0.971c0-0.133-1.236-0.342-2.745-0.465c-2.838-0.238-5.205-1.036-5.205-1.74
		c0-0.23,0.25-0.828,0.565-1.332c0.31-0.515,0.506-0.971,0.433-1.028c-0.078-0.058-1.299-0.397-2.73-0.789
		c-2.853-0.75-5.18-1.874-5.18-2.482c0-0.228,0.319-0.846,0.72-1.399c0.696-0.931,0.696-0.999,0.091-1.121
		c-1.537-0.313-6.504-2.339-6.726-2.73c-0.148-0.255,0.189-0.999,0.808-1.749l1.058-1.301l-0.995-0.4
		c-0.549-0.218-1.827-0.856-2.835-1.427c-1.499-0.855-1.797-1.178-1.611-1.778c0.168-0.588-0.033-0.846-0.961-1.254
		c-1.702-0.771-2.229-1.568-1.689-2.51c0.25-0.42,0.391-0.791,0.331-0.828c-0.063-0.038-1.167-0.656-2.462-1.359
		c-1.293-0.706-2.667-1.589-3.048-1.969c-0.656-0.656-0.656-0.733-0.101-1.406c0.335-0.39,0.536-0.761,0.456-0.829
		c-0.075-0.067-1.341-0.923-2.813-1.892c-2.238-1.494-2.649-1.912-2.512-2.587c0.14-0.636-0.223-1.094-1.801-2.282
		c-4.227-3.195-7.798-5.675-11.131-7.76c-1.912-1.196-3.479-2.3-3.479-2.462c0-0.392,5.66,1.103,9.504,2.501
		c1.712,0.626,3.654,1.253,4.314,1.396c0.671,0.133,1.722,0.561,2.337,0.941c0.611,0.38,1.122,0.581,1.126,0.438
		c0.025-1.121,0.646-1.141,3.123-0.058c1.411,0.618,2.897,1.457,3.286,1.854c0.956,0.972,1.164,0.924,1.579-0.38
		c0.317-0.968,0.455-1.046,1.216-0.741c2.282,0.941,4.754,2.472,5.483,3.414c0.453,0.57,0.883,1.036,0.961,1.036
		c0.075,0,0.413-0.655,0.751-1.454c0.453-1.083,0.761-1.407,1.173-1.226c1.115,0.456,3.454,2.34,4.495,3.614l1.066,1.294
		l0.806-1.285l0.817-1.293l1.705,1.121c0.931,0.628,2.272,1.827,2.975,2.673l1.264,1.532l0.751-1.361l0.75-1.359l1.552,1.141
		c0.856,0.638,1.962,1.806,2.477,2.595c0.506,0.781,1.032,1.436,1.179,1.436c0.142,0.02,0.558-0.485,0.908-1.121l0.641-1.132
		l2.117,1.892c1.167,1.047,2.447,2.395,2.873,3.006c0.946,1.379,1.126,1.379,1.662-0.01c0.24-0.618,0.636-1.124,0.881-1.124
		c0.601,0,3.869,3.576,4.54,4.975l0.54,1.11l0.641-0.903c0.35-0.493,0.651-1.026,0.656-1.179c0.025-1.111,2.823,1.464,4.539,4.184
		c0.644,1.018,1.271,1.854,1.404,1.854c0.123,0.01,0.334-0.333,0.466-0.771c0.158-0.55-0.033-1.063-0.713-1.824l-0.931-1.056
		l0.726-0.496c0.828-0.551,0.98-1.427,0.25-1.427c-0.705,0-6.634-4.279-6.881-4.971c-0.144-0.401,0.125-0.799,0.813-1.247
		c0.561-0.35,1.024-0.75,1.024-0.903c0-0.143-0.659-0.684-1.472-1.199c-0.806-0.531-2.482-1.95-3.712-3.176l-2.243-2.205
		l0.989-0.838l0.988-0.846l-0.988-0.543c-1.08-0.588-4.818-4.344-5.346-5.38c-0.27-0.533-0.068-0.781,1.146-1.446
		c1.364-0.751,1.421-0.846,0.783-1.227c-0.375-0.228-1.929-1.711-3.453-3.301c-3.003-3.147-2.968-2.995-0.866-4.401
		c0.461-0.305,0.456-0.4-0.02-0.808c-1.817-1.569-2.382-2.15-3.866-3.946c-1.801-2.208-2.054-3.216-0.863-3.556
		c1.792-0.515,1.814-0.818,0.208-2.513c-1.629-1.718-3.4-4.316-3.4-4.992c0-0.218,0.561-0.693,1.261-1.045
		c1.23-0.646,1.241-0.666,0.54-1.196c-1.005-0.753-3.994-6.011-3.768-6.629c0.099-0.275,0.67-0.608,1.269-0.733l1.093-0.238
		l-1.196-1.586c-1.308-1.741-2.655-4.289-2.655-5.022c0-0.265,0.378-0.475,0.838-0.475c1.117,0,1.442-0.626,0.75-1.454
		c-0.615-0.733-2.63-5.05-2.63-5.63c0-0.198,0.391-0.36,0.866-0.36c0.983,0,1.054-0.266,0.403-1.321
		c-0.96-1.532-1.667-3.994-1.236-4.289c0.305-0.201,0.2-0.818-0.398-2.378c-0.648-1.691-0.723-2.176-0.362-2.424
		c0.357-0.228,0.366-0.476,0.057-1.093c-0.365-0.741-2.087-9.082-2.584-12.525c-0.12-0.815-0.295-1.767-0.405-2.139
		c-0.105-0.351-0.021-0.646,0.179-0.646c0.476,0,3.914,7.369,3.644,7.835c-0.109,0.2-0.04,0.362,0.166,0.362
		c0.19,0,0.98,1.331,1.747,2.966c0.766,1.636,2.007,3.861,2.758,4.927c0.756,1.074,1.466,2.433,1.582,3.013
		c0.215,1.028,0.243,1.045,0.909,0.38c0.67-0.645,0.708-0.645,1.219,0.079c0.683,0.957,2.167,4.326,2.171,4.924
		c0,0.666,0.456,0.571,1.284-0.257c0.708-0.714,0.723-0.714,1.426,0.095c0.908,1.057,2.467,4.669,2.472,5.753
		c0,1.057,0.19,1.046,1.459-0.112c0.808-0.734,1.146-0.846,1.517-0.506c0.791,0.706,3.248,6.296,3.248,7.39
		c0,1.474,0.317,1.607,1.474,0.543c0.566-0.506,1.209-0.866,1.409-0.791c0.625,0.228,2.395,4.432,2.57,6.133
		c0.19,1.789,0.428,1.892,1.799,0.845c0.75-0.578,1.046-0.646,1.311-0.285c0.618,0.818,2.125,5.012,2.357,6.534l0.215,1.484
		l1.174-0.743c0.866-0.551,1.299-0.636,1.634-0.351c0.658,0.598,2.402,6.276,2.202,7.142c-0.29,1.168,0.235,1.168,1.742-0.04
		l1.407-1.102l0.855,1.958c1.051,2.417,1.617,4.557,1.622,6.153c0,0.676,0.085,1.216,0.186,1.216c0.105,0,0.796-0.34,1.537-0.74
		c0.911-0.503,1.427-0.618,1.583-0.343c0.575,0.999,1.186,4.47,1.19,6.762c0,1.379,0.085,2.51,0.19,2.51s0.755-0.418,1.461-0.921
		c0.929-0.686,1.329-0.801,1.497-0.468c0.37,0.713,0.996,5.611,0.996,7.712v1.902l1.289-0.951c0.712-0.523,1.389-0.94,1.514-0.94
		c0.601,0,1.046,2.52,1.111,6.256l0.058,4.128l1.179-0.743c0.831-0.523,1.251-0.628,1.421-0.323c0.238,0.409,0.803,7.57,0.736,9.204
		c-0.045,1.019,0.316,1.066,1.372,0.135c0.693-0.601,0.893-0.628,1.511-0.201c0.396,0.286,1.062,0.409,1.479,0.295l0.77-0.22
		l-0.965-1.348c-2.067-2.921-4.212-7.009-4.212-8.035c0-0.333,0.466-0.648,1.216-0.801l1.217-0.246l-0.816-1.16
		c-0.946-1.341-3.3-6.276-3.703-7.75c-0.252-0.941-0.196-1.019,1.078-1.247c0.741-0.132,1.349-0.323,1.349-0.418
		c0-0.105-0.371-0.883-0.831-1.749c-1.02-1.922-3.313-7.875-3.313-8.636c0-0.388,0.391-0.55,1.376-0.55
		c1.562,0,1.594-0.058,0.866-1.247c-0.735-1.215-2.242-6.151-2.242-7.349c0-0.981,0.06-1.009,1.427-0.819
		c1.369,0.2,1.406,0.18,1.158-0.676c-0.143-0.492-0.455-1.321-0.703-1.844c-0.512-1.083-1.536-5.172-1.536-6.133
		c0-0.543,0.225-0.618,1.356-0.455c1.727,0.255,1.897,0.047,1.056-1.219c-0.711-1.073-2.177-6.958-1.869-7.492
		c0.1-0.172,0.893-0.2,1.774-0.067c1.786,0.267,1.749,0.438,0.603-2.863c-0.318-0.92-0.603-2.594-0.633-3.726
		c-0.042-2.225-0.11-2.187,2.25-1.684l1.247,0.257l-0.633-1.987c-0.401-1.246-0.636-3.063-0.646-4.897l-0.016-2.911l1.611,0.265
		c1.495,0.238,1.589,0.201,1.352-0.445c-0.881-2.313-1.404-7.522-0.833-8.14c0.121-0.133,0.798,0.027,1.517,0.342
		c0.718,0.323,1.369,0.523,1.441,0.436c0.081-0.085-0.042-0.874-0.265-1.767c-0.381-1.542-0.268-5.049,0.212-6.401
		c0.195-0.541,0.318-0.55,1.204-0.057c1.634,0.914,2.049,0.753,1.664-0.666c-0.37-1.339,0.713-7.95,1.289-7.855
		c0.175,0.018,0.661,0.155,1.069,0.293c0.697,0.232,0.746,0.147,0.59-0.984c-0.095-0.67,0.038-2.314,0.295-3.645l0.475-2.42
		l1.142,0.123c0.831,0.085,1.093-0.016,0.974-0.376c-0.081-0.27,0.618-2.837,1.559-5.705c0.951-2.873,2.017-6.218,2.377-7.45
		c0.37-1.226,0.923-2.825,1.242-3.538c0.317-0.719,0.675-1.972,0.784-2.791l0.219-1.494l0.465,1.579
		c0.396,1.347,0.375,2.315-0.123,6.704c-0.66,5.853-0.698,11.269-0.085,11.269c0.446,0,0.218,5.43-0.263,6.271
		c-0.205,0.348-0.017,0.438,0.703,0.358l0.982-0.11l-0.035,2.813c-0.018,1.549-0.228,3.195-0.455,3.661
		c-0.577,1.159-0.313,1.312,1.118,0.656l1.211-0.551l0.19,1.188c0.205,1.301-0.21,5.618-0.645,6.722
		c-0.258,0.628-0.179,0.676,0.725,0.417c2.127-0.607,2.05-0.73,1.921,3.528c-0.075,2.208-0.337,4.46-0.618,5.173
		c-0.263,0.706-0.413,1.331-0.348,1.409c0.068,0.075,0.804-0.01,1.627-0.21c0.818-0.2,1.641-0.275,1.812-0.153
		c0.508,0.333-0.072,3.852-0.993,6.021l-0.841,2.014l1.725-0.254l1.732-0.248v1.358c0,1.741-0.904,5.487-1.755,7.294
		c-0.78,1.644-0.803,1.827-0.232,1.636c0.238-0.077,1.088-0.248,1.901-0.363c1.384-0.208,1.464-0.18,1.464,0.696
		c0,1.141-1.188,4.458-2.087,5.817c-0.371,0.561-0.67,1.124-0.67,1.236c0,0.116,0.698,0.116,1.549-0.017
		c1.556-0.23,1.556-0.23,1.556,0.921c0,1.321-1.236,5.182-1.946,6.058c-0.778,0.968-0.545,1.189,1.051,0.998l1.532-0.19
		l-0.451,1.539c-0.899,3.036-1.564,4.765-2.244,5.801c-1.094,1.647-0.933,1.997,0.851,1.779c0.96-0.115,1.554-0.038,1.554,0.21
		c0,0.816-2.225,6.467-2.991,7.587c-0.442,0.656-0.813,1.284-0.813,1.399c0,0.112,0.623,0.208,1.383,0.208
		c1.004,0,1.384,0.163,1.384,0.56c0,0.856-2.69,7.675-3.498,8.874c-0.823,1.226-0.771,1.358,0.688,1.473
		c0.666,0.047,1.083,0.285,1.083,0.608c0,0.628-2.98,7.037-3.674,7.883c-0.718,0.893-0.585,1.083,0.736,1.083
		c0.988,0,1.208,0.144,1.208,0.762c0,0.42-0.225,1.246-0.506,1.826c-0.488,1.008-0.465,1.104,0.333,1.665
		c0.468,0.322,0.886,0.59,0.938,0.59c0.055,0,0.117-1.551,0.143-3.443c0.038-3.318,0.578-6.608,1.088-6.608
		c0.143,0,0.756,0.333,1.369,0.733l1.126,0.74v-2.482c0-3.127,0.622-7.026,1.203-7.549c0.328-0.295,0.714-0.163,1.484,0.542
		c0.576,0.513,1.137,0.941,1.255,0.941c0.12,0,0.185-0.723,0.162-1.589c-0.068-2.262,0.755-7.322,1.293-7.893
		c0.237-0.265,0.338-0.618,0.203-0.778c-0.138-0.163,0.219,0.027,0.791,0.445c0.575,0.418,1.204,0.855,1.393,0.971
		c0.219,0.133,0.37-0.581,0.399-1.902c0.042-2.129,0.542-4.649,1.117-5.6c0.251-0.438,0.495-0.373,1.375,0.303
		c1.225,0.941,1.739,0.791,1.526-0.438c-0.173-0.941,1.344-6.427,2.062-7.493c0.438-0.646,0.51-0.638,1.737,0.143l1.278,0.818
		v-1.304c0-0.714,0.322-2.415,0.708-3.766c0.747-2.605,1.231-2.965,2.553-1.891c1.041,0.855,1.626,0.703,1.383-0.351
		c-0.337-1.437,0.767-5.013,2.498-8.131c0.091-0.152,0.671,0.143,1.292,0.655c0.623,0.513,1.237,0.921,1.361,0.921
		c0.123,0,0.228-0.656,0.228-1.474c0-1.481,1.403-5.21,2.24-5.96c0.328-0.295,0.718-0.152,1.488,0.541
		c1.291,1.181,1.454,1.181,1.454,0c0-0.523,0.49-1.987,1.078-3.262c1.505-3.232,1.613-3.347,2.492-2.682
		c0.956,0.723,1.264,0.695,1.28-0.095c0.008-0.856,1.26-3.811,1.963-4.65c0.527-0.628,0.57-0.628,1.036,0.085
		c0.655,1.018,1.079,0.933,1.352-0.275c0.255-1.206,2.147-4.564,2.567-4.564c0.15,0,0.384,0.173,0.499,0.371
		c0.337,0.581,0.798,0.438,1.023-0.313c0.375-1.264,2.991-4.717,3.488-4.603c0.28,0.058,0.5-0.047,0.5-0.228
		c0-0.315,1.82-2.607,4.144-5.24c0.476-0.542,1.623-1.694,2.551-2.549c1.559-1.464,2.292-1.72,2.292-0.809
		c0,0.21-0.177,0.257-0.4,0.115c-0.248-0.17-0.305-0.105-0.153,0.163c0.134,0.238-0.202,1.141-0.756,2.015
		c-2.105,3.318-3.488,6.153-4.411,9.033c-0.522,1.636-1.083,3.128-1.245,3.328c-0.465,0.561-0.333,1.321,0.222,1.321
		c0.286,0,0.523,0.173,0.523,0.391c0,0.57-2.009,4.737-2.421,5.012c-0.517,0.343-0.069,0.931,0.709,0.931
		c0.378,0,0.676,0.249,0.676,0.581c0,0.741-1.232,3.376-2.305,4.908c-0.986,1.416-0.819,1.959,0.598,1.959
		c0.561,0,1.014,0.15,1.014,0.323c0,0.57-3.371,5.913-3.824,6.076c-0.703,0.247-0.018,1.046,0.886,1.046
		c0.456,0,0.904,0.133,0.999,0.295c0.297,0.532-1.034,3.213-2.668,5.389c-0.891,1.172-1.611,2.208-1.611,2.303
		s0.54,0.285,1.21,0.418c0.661,0.133,1.205,0.418,1.205,0.648c0,0.74-2.697,5.277-3.424,5.76c-1.078,0.695-0.876,1.104,0.661,1.389
		c0.988,0.18,1.384,0.438,1.384,0.886c0,0.721-2.504,4.079-4.384,5.876c-1.179,1.121-1.299,1.986-0.275,1.986
		c0.682,0,2.244,0.809,2.244,1.171c0,0.35-1.984,2.528-4.322,4.744c-1.578,1.484-1.673,1.665-1.093,2.045
		c1.93,1.274,1.952,1.131-0.633,3.756c-1.331,1.349-2.693,2.538-3.025,2.653c-0.863,0.295-0.755,0.646,0.434,1.406
		c0.57,0.363,1.033,0.801,1.033,0.981c0,0.561-3.458,3.604-5.559,4.898c-1.113,0.683-2.026,1.348-2.031,1.464
		c-0.009,0.123,0.375,0.448,0.851,0.713c0.976,0.57,1.014,0.693,0.423,1.521c-0.457,0.638-4.197,3.386-5.891,4.317l-1.046,0.59
		l0.935,0.588c0.498,0.343,0.915,0.896,0.915,1.247c0,1.104,0.595,1.083,1.018-0.018c0.466-1.208,4.506-6,5.066-6
		c0.189,0,0.631,0.627,0.974,1.389l0.617,1.396l0.627-1.301c0.348-0.713,1.602-2.377,2.79-3.681c2.278-2.509,2.193-2.493,3.271-0.57
		c0.325,0.581,0.443,0.502,1.089-0.676c0.67-1.216,3.966-4.384,4.569-4.384c0.143,0,0.442,0.676,0.664,1.494
		c0.381,1.341,1.082,2.064,1.082,1.104c0-0.542,3.414-4.042,4.569-4.679c0.941-0.533,0.984-0.503,1.543,0.771
		c0.323,0.723,0.682,1.311,0.799,1.311c0.125,0,0.676-0.513,1.237-1.148c1.938-2.218,5.677-4.415,5.677-3.338
		c0,0.19,0.158,0.778,0.349,1.331l0.345,0.978l0.828-1.056c0.45-0.578,1.717-1.624,2.805-2.33c1.883-1.216,2.002-1.244,2.448-0.598
		c0.253,0.371,0.511,0.846,0.565,1.037c0.063,0.2,0.607-0.132,1.214-0.741c0.608-0.618,2.159-1.541,3.446-2.064
		c2.141-0.866,2.377-0.894,2.777-0.333c0.404,0.56,0.512,0.56,1.383,0c0.518-0.333,1.723-0.713,2.674-0.856
		c0.949-0.143,3.588-0.588,5.865-1.008c4.727-0.856,8.896-0.704,7.98,0.295c-0.273,0.285-0.719,0.523-1,0.523
		c-0.822,0-7.494,2.587-9.691,3.766c-1.115,0.598-2.789,1.739-3.727,2.54c-0.938,0.808-1.891,1.529-2.121,1.617
		c-0.313,0.113-0.297,0.312,0.064,0.778c0.41,0.543,0.395,0.723-0.154,1.369c-0.344,0.421-1.492,1.276-2.553,1.932
		c-1.063,0.636-1.986,1.217-2.064,1.284c-0.076,0.065,0.119,0.428,0.434,0.809c0.314,0.37,0.568,0.788,0.568,0.92
		c0,0.343-4.195,3.606-4.643,3.614c-0.205,0-0.592,0.162-0.871,0.353c-0.433,0.295-0.391,0.486,0.289,1.264l0.805,0.923
		l-1.676,1.321c-0.92,0.724-2.566,1.78-3.645,2.36c-1.084,0.561-1.967,1.168-1.98,1.331c-0.012,0.161,0.397,0.683,0.917,1.168
		c0.829,0.771,0.882,0.941,0.45,1.502c-0.57,0.743-3.73,2.493-5.71,3.178c-2.011,0.683-2.001,0.673-0.869,2.157
		c0.816,1.076,0.948,1.456,0.609,1.797c-0.549,0.553-5.26,2.377-6.159,2.377c-0.851,0-0.84,0.306,0.063,1.341l0.728,0.838
		l-1.33,0.713c-0.733,0.398-2.655,1.111-4.272,1.597c-1.616,0.475-3.008,0.93-3.091,0.998c-0.089,0.067,0.106,0.59,0.424,1.168
		c0.552,1.009,0.547,1.066-0.193,1.484c-1.233,0.696-5.508,1.912-6.73,1.912c-1.257,0-1.353,0.228-0.608,1.379
		c0.491,0.75,0.457,0.855-0.438,1.541c-1.04,0.798-4.183,1.549-6.485,1.549c-1.334,0-1.435,0.067-1.288,0.883
		c0.204,1.151-0.938,1.599-5.006,1.949c-2.525,0.22-3.133,0.4-3.715,1.104c-0.785,0.961-2.435,1.484-5.699,1.827
		c-3.492,0.37-4.217,0.58-4.015,1.15c0.258,0.731,0.043,0.809-3.893,1.444c-1.945,0.315-3.803,0.75-4.126,0.981
		c-0.507,0.35-0.496,0.38,0.095,0.17c0.37-0.132,1.342-0.333,2.159-0.456c1.232-0.182,1.482-0.104,1.482,0.398
		c0,0.475,0.135,0.533,0.611,0.228c1.152-0.72,4.861-1.759,5.289-1.474c0.233,0.163,0.329,0.553,0.216,0.886
		c-0.258,0.723-0.258,0.723,1.206,0.065c0.648-0.292,2.165-0.656,3.371-0.808l2.191-0.266l-0.159,1.178
		c-0.086,0.639-0.13,1.171-0.091,1.171c0.038,0,0.726-0.247,1.539-0.563c1.546-0.588,3.418-0.703,4.79-0.313
		c0.708,0.201,0.788,0.4,0.618,1.522c-0.177,1.198-0.136,1.273,0.57,1.056c2.542-0.792,4.487-0.981,5.638-0.571
		c1.078,0.38,1.194,0.533,1.009,1.437l-0.206,1.006l2.245-0.15c1.242-0.095,2.82-0.04,3.508,0.096
		c1.146,0.227,1.237,0.339,1.098,1.338l-0.148,1.094l2.447,0.01c2.979,0,3.458,0.275,3.16,1.749
		c-0.214,1.056-0.185,1.086,0.839,0.934c0.577-0.095,2.139,0.132,3.455,0.503c2.177,0.607,2.382,0.75,2.218,1.494
		c-0.159,0.646-0.004,0.856,0.756,1.064c0.523,0.143,1.901,0.733,3.053,1.303c1.152,0.581,4.041,1.75,6.414,2.625
		c2.377,0.866,4.789,1.834,5.356,2.149l1.021,0.578l-0.854,0.333c-0.469,0.189-3.891,0.362-7.595,0.373
		c-11.109,0.028-13.603,0.15-13.756,0.635c-0.323,1.046-3.423,1.152-6.694,0.228c-0.791-0.228-0.933-0.133-1.036,0.61
		c-0.168,1.274-2.23,1.332-5.598,0.181c-2.879-0.989-2.658-1.045-3.193,0.826c-0.21,0.743-2.139,0.325-4.807-1.016
		c-2.26-1.141-2.582-1.141-2.582,0.009c0,1.074-2.05,0.864-4.65-0.448c-1.746-0.883-2.502-1.083-3.438-0.903
		c-1.199,0.247-1.902-0.027-6.166-2.452c-0.714-0.401-1.569-0.791-1.902-0.856c-1.104-0.238-2.312-0.903-4.062-2.254
		c-2.6-2.018-2.99-1.607-0.765,0.818c1.088,1.179,1.979,2.329,1.979,2.567c0,0.218-0.337,0.492-0.752,0.608
		c-0.717,0.21-0.689,0.295,0.61,1.816c1.797,2.12,3.708,5.391,3.431,5.876c-0.122,0.21-0.446,0.38-0.721,0.38
		c-0.563,0-0.665,0.59-0.168,0.924c0.418,0.274,2.783,5.057,2.783,5.638c0,0.238-0.253,0.543-0.563,0.665
		c-0.483,0.201-0.498,0.323-0.047,1.067c0.681,1.111,1.631,4.676,1.289,4.819c-0.147,0.058,0.183,1.95,0.733,4.204
		c1.004,4.117,1.264,6.514,0.704,6.514c-0.166,0-1.855-2.214-3.747-4.925c-4.193-6.021-5.349-7.362-6.281-7.362
		c-0.809,0-1.972-1.766-3.581-5.484l-1.016-2.33l-0.909,0.77c-0.845,0.721-0.929,0.731-1.346,0.113
		c-0.242-0.36-0.446-0.808-0.446-0.988c0-0.741-1.859-5.335-2.382-5.869c-0.305-0.312-0.808-0.513-1.123-0.435
		c-0.566,0.112-0.937-0.734-1.484-3.387c-0.185-0.913-0.275-0.98-0.721-0.486c-0.618,0.667-0.686,10.318-0.162,25.732
		c0.134,4.145,0.345,10.556,0.523,16.093c0.06,1.846,0.115,3.594,0.163,5.129c-21.499-1.556-34.311,21.506-29.186,39.443
		c5.125,10.25,12.813,20.5,25.625,20.5c10.25,0,23.062-5.125,25.625-17.938c2.563-10.25,0-23.061-10.25-28.186
		c-10.25-5.125-25.624-2.562-30.749,10.25c0,2.562,0,10.249,0,12.813c5.125,7.687,10.25,12.812,20.5,10.25
		c7.687-2.563,15.375-12.813,7.687-20.5c-5.125-5.125-10.25-2.562-15.374,0c5.125,0-5.125,12.813,6.045,8.211
		C308.906,295.181,308.466,294.292,309.364,294.124z"/>
	<path fill="#231F20" d="M140.225,214.74c0,5.607,0.251,10,0.753,13.179c0.501,3.179,1.65,5.626,3.448,7.34
		c1.796,1.716,4.325,2.97,7.585,3.766c3.26,0.795,7.649,1.442,13.166,1.944c1.004,0.164,1.797,0.701,2.382,1.606
		c0.584,0.907,0.878,1.875,0.878,2.905s-0.294,1.958-0.878,2.779c-0.585,0.821-1.463,1.235-2.632,1.235
		c-6.856,0-13.417-0.335-19.687-1.003c-6.27-0.669-12.457-1.004-18.557-1.004c-6.521,0-13.25,0.335-20.188,1.004
		c-6.94,0.668-13.25,1.003-18.935,1.003c-1.002,0-1.755-0.414-2.256-1.235c-0.502-0.821-0.752-1.749-0.752-2.779
		s0.25-1.998,0.752-2.905c0.501-0.905,1.254-1.442,2.256-1.606c5.349-0.502,9.592-1.149,12.727-1.944
		c3.135-0.796,5.6-2.05,7.398-3.766c1.796-1.714,3.01-4.161,3.637-7.34s0.94-7.571,0.94-13.179V100.542
		c0-6.273-1.589-10.228-4.766-11.859c-3.178-1.63-8.526-2.447-16.049-2.447c-6.354,0-11.58,0.46-15.674,1.379
		c-4.098,0.922-7.482,2.634-10.157,5.142c-2.676,2.508-4.828,5.894-6.457,10.156c-1.631,4.264-3.116,9.824-4.452,16.677
		c-0.168,1.004-0.732,1.674-1.692,2.007c-0.962,0.336-1.903,0.46-2.821,0.376c-0.921-0.082-1.756-0.376-2.508-0.878
		c-0.752-0.501-1.129-1.085-1.129-1.755c0.668-6.352,1.045-12.832,1.129-19.436c0.082-6.603-0.294-13.123-1.129-19.562
		c0-1.921,1.191-3.218,3.574-3.887s5.036-1.003,7.962-1.003h137.303c3.261,0,5.956,0.294,8.088,0.877
		c2.131,0.586,3.197,1.84,3.197,3.762c-0.335,2.007-0.627,4.515-0.878,7.523c-0.25,3.01-0.376,6.313-0.376,9.906
		c0,3.595,0.126,7.272,0.376,11.034c0.251,3.762,0.542,7.356,0.878,10.784c0,0.67-0.418,1.297-1.254,1.881
		c-0.836,0.585-1.777,0.94-2.821,1.065c-1.045,0.125-2.027,0-2.947-0.376c-0.92-0.376-1.464-1.066-1.629-2.069
		c-1.004-6.853-2.363-12.455-4.075-16.802c-1.715-4.346-3.993-7.774-6.834-10.282c-2.842-2.508-6.313-4.22-10.407-5.142
		c-4.097-0.919-8.987-1.379-14.671-1.379c-7.692,0-13.25,0.817-16.676,2.447c-3.429,1.632-5.142,5.586-5.142,11.859V214.74z"/>
	<path fill="#231F20" d="M455.558,187.426c-2.341,0-4.035,0.378-5.078,1.133c-1.047,0.754-1.987,2.094-2.821,4.021l-11.536,30.288
		c-0.92,2.769-1.379,4.737-1.379,5.908c0,2.178,0.563,4.022,1.692,5.531s2.633,2.724,4.514,3.646
		c1.881,0.921,4.032,1.611,6.458,2.074c2.424,0.462,4.891,0.775,7.398,0.941c1.254,0,2.131,0.455,2.633,1.358
		c0.502,0.908,0.752,1.854,0.752,2.842c0,1.072-0.25,2.061-0.752,2.966c-0.502,0.906-1.379,1.36-2.633,1.36
		c-2.007,0-4.224-0.106-6.646-0.313c-2.426-0.211-4.911-0.439-7.46-0.689c-2.552-0.251-5.122-0.481-7.712-0.69
		c-2.592-0.207-5.06-0.313-7.398-0.313c-4.432,0-8.714,0.335-12.853,1.004c-4.138,0.668-8.589,1.003-13.354,1.003
		c-1.004,0-1.799-0.497-2.383-1.482c-0.586-0.988-0.877-2.06-0.877-3.214c0-0.905,0.229-1.73,0.689-2.472
		c0.457-0.74,1.232-1.194,2.319-1.358l3.886-0.502c2.591-0.583,4.912-1.294,6.961-2.132c2.046-0.836,3.991-2.069,5.83-3.703
		c1.839-1.63,3.593-3.848,5.267-6.649c1.672-2.801,3.426-6.464,5.267-10.98l58.056-146.187c0.502-1.423,1.881-2.134,4.138-2.134
		c2.339,0,4.22,0.711,5.643,2.134c4.264,10.959,8.84,22.691,13.73,35.197c4.891,12.508,9.885,25.224,14.984,38.147
		c5.099,12.924,10.219,25.766,15.36,38.521c5.141,12.759,10.05,24.825,14.733,36.204c2.006,4.937,3.969,8.763,5.894,11.483
		c1.922,2.718,3.887,4.788,5.893,6.211c2.007,1.42,4.055,2.383,6.145,2.885c2.088,0.501,4.305,1.003,6.646,1.505
		c1.003,0.164,1.734,0.701,2.194,1.606c0.458,0.907,0.689,1.855,0.689,2.843c0,1.071-0.209,2.021-0.627,2.842
		s-1.088,1.235-2.006,1.235c-2.677,0-5.329-0.084-7.962-0.251c-2.634-0.169-5.248-0.42-7.837-0.752
		c-2.508-0.335-5.184-0.584-8.025-0.753c-2.844-0.167-5.852-0.251-9.028-0.251c-7.272,0-14.044,0.335-20.313,1.004
		c-6.27,0.668-12.33,1.003-18.182,1.003c-1.172,0-2.068-0.454-2.695-1.36c-0.627-0.905-0.94-1.976-0.94-3.213
		c0-0.986,0.251-1.854,0.752-2.595c0.502-0.74,1.38-1.194,2.634-1.358c5.85-0.753,10.112-1.802,12.789-3.144
		c2.759-1.34,4.139-4.188,4.139-8.546c0-1.172-0.126-2.532-0.377-4.085c-0.25-1.549-0.796-3.666-1.63-6.347
		c-0.836-2.68-2.027-6.115-3.573-10.304c-1.549-4.189-3.617-9.511-6.207-15.964c-0.836-2.262-1.987-3.687-3.448-4.273
		c-1.463-0.586-3.824-0.88-7.085-0.88H455.558z M499.82,177.395c2.339,0,3.95-0.396,4.828-1.191c0.877-0.794,0.896-2.194,0.063-4.2
		l-22.445-60.063c-0.336-0.918-1.003-1.379-2.006-1.379s-1.674,0.461-2.007,1.379l-23.447,60.063
		c-0.838,2.175-0.922,3.617-0.251,4.325c0.667,0.711,1.964,1.066,3.887,1.066H499.82z"/>
	<path fill="#231F20" d="M616.8,114.024c0-5.341-0.295-9.889-0.878-13.645c-0.587-3.755-1.736-6.823-3.448-9.203
		c-1.714-2.378-4.159-4.216-7.335-5.509c-3.179-1.292-7.398-2.106-12.665-2.441c-1.003,0-1.776-0.466-2.319-1.399
		c-0.544-0.931-0.815-1.928-0.815-2.991c0-1.06,0.271-2.013,0.815-2.861c0.543-0.85,1.316-1.274,2.319-1.274
		c5.434,0,11.657,0.295,18.671,0.878c7.016,0.587,13.603,0.878,19.762,0.878c3.577,0,6.821-0.082,9.734-0.251
		c2.915-0.167,5.729-0.376,8.447-0.627c2.715-0.251,5.496-0.458,8.338-0.627c2.841-0.167,6.061-0.251,9.655-0.251
		c1.003,0,1.756,0.425,2.257,1.274c0.502,0.849,0.753,1.802,0.753,2.861c0,1.063-0.251,2.061-0.753,2.991
		c-0.501,0.934-1.172,1.399-2.006,1.399c-5.351,0.335-9.511,1.066-12.477,2.192c-2.968,1.127-5.225,2.838-6.771,5.131
		c-1.549,2.297-2.489,5.322-2.821,9.078c-0.335,3.756-0.502,8.554-0.502,14.396v47.197c0,1.336,0.667,2.13,2.006,2.381
		c1.336,0.251,2.55-0.126,3.637-1.129c12.455-12.435,22.924-23.91,31.41-34.428c8.483-10.515,14.94-19.571,19.373-27.166
		c2.088-3.589,3.26-6.447,3.511-8.575c0.251-2.129-0.188-3.819-1.316-5.071s-2.844-2.148-5.141-2.69
		c-2.301-0.541-4.997-0.981-8.088-1.316c-1.171-0.169-2.027-0.677-2.57-1.525c-0.546-0.849-0.815-1.802-0.815-2.865
		c0-1.06,0.229-2.013,0.689-2.861c0.458-0.85,1.191-1.274,2.194-1.274c6.019,0,11.367,0.295,16.05,0.878
		c4.682,0.587,9.613,0.878,14.797,0.878c4.596,0,8.694-0.291,12.287-0.878c3.594-0.583,8.066-0.878,13.419-0.878
		c0.833,0,1.46,0.425,1.881,1.274c0.415,0.849,0.627,1.802,0.627,2.861c0,1.063-0.212,2.017-0.627,2.865
		c-0.421,0.849-1.048,1.356-1.881,1.525c-3.432,0.335-6.313,0.775-8.652,1.316c-2.343,0.542-4.451,1.313-6.332,2.314
		s-3.637,2.398-5.269,4.193c-1.628,1.794-3.446,4.15-5.453,7.068c-2.927,4.088-6.062,8.367-9.404,12.829
		c-3.345,4.464-6.771,8.865-10.282,13.202c-3.511,4.339-7.064,8.554-10.658,12.64c-3.595,4.089-7.022,7.843-10.282,11.264
		c-0.836,0.918-1.087,2.046-0.752,3.382c0.332,1.337,1.295,2.714,2.884,4.133c4.094,3.758,8.357,8.119,12.79,13.085
		c4.43,4.968,8.88,10.352,13.354,16.154c4.471,5.804,8.798,11.813,12.979,18.033c4.178,6.218,8.151,12.416,11.913,18.592
		c3.594,6.011,7.542,10.604,11.847,13.774c4.304,3.176,10.053,5.095,17.243,5.762c1.004,0.171,1.756,0.679,2.258,1.527
		c0.499,0.849,0.752,1.802,0.752,2.863s-0.253,2.015-0.752,2.863c-0.502,0.848-1.254,1.272-2.258,1.272
		c-3.847,0-7.297-0.084-10.347-0.251c-3.051-0.169-5.998-0.376-8.84-0.627s-5.705-0.502-8.587-0.752
		c-2.886-0.251-5.958-0.377-9.217-0.377c-3.26,0-6.271,0.126-9.028,0.377c-2.759,0.25-5.455,0.501-8.088,0.752
		c-2.634,0.251-5.329,0.458-8.088,0.627c-2.759,0.167-5.852,0.251-9.279,0.251c-1.003,0-1.799-0.425-2.382-1.272
		c-0.586-0.849-0.922-1.802-1.003-2.863c-0.084-1.062,0.165-2.059,0.752-2.989c0.583-0.934,1.461-1.401,2.633-1.401
		c1.923-0.166,3.866-0.479,5.831-0.938c1.963-0.458,3.553-1.272,4.765-2.439c1.212-1.168,1.901-2.733,2.069-4.695
		c0.167-1.959-0.544-4.483-2.132-7.571c-2.928-5.673-5.58-10.642-7.962-14.896c-2.383-4.255-4.851-8.176-7.398-11.765
		c-2.552-3.588-5.373-7.093-8.464-10.514c-3.095-3.421-6.604-7.009-10.533-10.765c-1.755-1.417-3.491-2.627-5.203-3.628
		c-1.714-1.001-4.201-1.503-7.461-1.503c-3.931,0-6.479,1.064-7.648,3.191c-1.173,2.128-1.756,4.403-1.756,6.823v32.292
		c0,5.591,0.207,10.013,0.627,13.267c0.418,3.256,1.316,5.778,2.696,7.573c1.379,1.794,3.467,3.045,6.27,3.754
		c2.8,0.709,6.539,1.314,11.222,1.814c0.836,0.171,1.505,0.679,2.007,1.527c0.501,0.849,0.794,1.802,0.878,2.863
		c0.081,1.062-0.126,2.015-0.627,2.863c-0.502,0.848-1.38,1.272-2.634,1.272c-3.428,0-6.541-0.084-9.342-0.251
		c-2.802-0.169-5.538-0.376-8.211-0.627s-5.318-0.502-7.939-0.752c-2.622-0.251-5.473-0.377-8.553-0.377
		c-6.492,0-13.204,0.335-20.136,1.004c-6.931,0.668-13.196,1.003-18.797,1.003c-1.087,0-1.881-0.425-2.382-1.272
		c-0.502-0.849-0.753-1.802-0.753-2.863s0.251-2.015,0.753-2.863c0.501-0.849,1.295-1.356,2.382-1.527
		c5.267-0.5,9.486-1.147,12.665-1.939c3.176-0.792,5.661-2.088,7.461-3.883c1.797-1.794,2.986-4.276,3.573-7.448
		c0.583-3.169,0.878-7.553,0.878-13.146V114.024z"/>
</g>
</svg>
